<svg xmlns="http://www.w3.org/2000/svg" viewBox="0 0 16 16">
<path d="M4.8536,2.1464 L8.3536,5.6464 L8.0000,6.0000 L7.6464,5.6464 L11.1464,2.1464 Q11.5000,1.7929 11.8536,2.1464 Q12.2071,2.5000 11.8536,2.8536 L8.3536,6.3536 Q8.0000,6.7071 7.6464,6.3536 L4.1464,2.8536 Q3.7929,2.5000 4.1464,2.1464 Q4.5000,1.7929 4.8536,2.1464 Z M4.1464,13.1464 L7.6464,9.6464 Q8.0000,9.2929 8.3536,9.6464 L11.8536,13.1464 Q12.2071,13.5000 11.8536,13.8536 Q11.5000,14.2071 11.1464,13.8536 L7.6464,10.3536 L8.0000,10.0000 L8.3536,10.3536 L4.8536,13.8536 Q4.5000,14.2071 4.1464,13.8536 Q3.7929,13.5000 4.1464,13.1464 Z" fill="#000000" fill-rule="evenodd"/>
</svg>
