<svg width="16" height="16" viewBox="0 0 16 16" fill="none" xmlns="http://www.w3.org/2000/svg">
<path d="M1.9754 2.0000L1.8044 2.0168L1.6164 2.0739L1.4431 2.1665L1.2912 2.2912L1.1665 2.4431L1.0739 2.6164L1.0168 2.8044L1.0000 2.9754L1.0000 13.0246L1.0168 13.1956L1.0739 13.3836L1.1665 13.5569L1.2912 13.7088L1.4431 13.8335L1.6164 13.9261L1.8044 13.9832L1.9754 14.0000L4.0246 14.0000L4.1956 13.9832L4.3836 13.9261L4.5569 13.8335L4.7088 13.7088L4.8335 13.5569L4.9261 13.3836L4.9832 13.1956L5.0000 13.0246L5.0000 2.9754L4.9832 2.8044L4.9261 2.6164L4.8335 2.4431L4.7088 2.2912L4.5569 2.1665L4.3836 2.0739L4.1956 2.0168L4.0246 2.0000L1.9754 2.0000ZM2.0022 3.0022L2.0246 3.0000L3.9754 3.0000L3.9978 3.0022L4.0000 3.0246L4.0000 12.9754L3.9978 12.9978L3.9754 13.0000L2.0246 13.0000L2.0022 12.9978L2.0000 12.9754L2.0000 3.0246L2.0022 3.0022Z" fill="#000000"/>
<path d="M14.7043 6.8992L14.0337 6.3188L13.3838 5.7564L11.4343 4.0691L10.7844 3.5067L10.1346 2.9443L9.4570 2.3579L9.1053 2.1341L8.6878 2.0197L8.2700 2.0286L7.8777 2.1477L7.5309 2.3664L7.2508 2.6765L7.0640 3.0670L7.0031 3.4794L7.0031 12.5515L7.0640 12.9639L7.2508 13.3544L7.5309 13.6645L7.8777 13.8832L8.2700 14.0023L8.6878 14.0111L9.1053 13.8968L9.4570 13.6730L11.4343 11.9617L12.0841 11.3993L14.7043 9.1317L14.9117 8.9079L15.0746 8.6284L15.1722 8.3270L15.2046 8.0154L15.1722 7.7039L15.0746 7.4025L14.9117 7.1230L14.7043 6.8992ZM14.0083 7.6194L14.1033 7.7218L14.1564 7.8130L14.1884 7.9119L14.1992 8.0154L14.1884 8.1190L14.1564 8.2179L14.1033 8.3090L14.0083 8.4115L11.4297 10.6432L10.7799 11.2056L8.8581 12.8688L8.6957 12.9722L8.5637 13.0083L8.4288 13.0055L8.2971 12.9654L8.1807 12.8920L8.0903 12.7919L8.0313 12.6685L8.0031 12.4781L8.0031 3.5528L8.0313 3.3624L8.0903 3.2390L8.1807 3.1389L8.2972 3.0655L8.4289 3.0254L8.5638 3.0226L8.6957 3.0587L8.8581 3.1621L9.4802 3.7005L10.1300 4.2629L10.7799 4.8253L12.7294 6.5125L13.3792 7.0750L14.0083 7.6194Z" fill="#000000"/>
</svg>
