<svg xmlns="http://www.w3.org/2000/svg" viewBox="0 0 16 16">
<path d="M13.9621,2.3086 C13.9380,2.2505 13.9026,2.1960 13.8557,2.1486 C13.8543,2.1472 13.8528,2.1457 13.8514,2.1443 C13.7611,2.0551 13.6370,2.0000 13.5000,2.0000 L13.4999,2.0000 L9.5000,2.0000 C9.2239,2.0000 9.0000,2.2239 9.0000,2.5000 C9.0000,2.7761 9.2239,3.0000 9.5000,3.0000 L12.2929,3.0000 L7.1465,8.1465 C6.9512,8.3417 6.9512,8.6583 7.1465,8.8535 C7.3417,9.0488 7.6583,9.0488 7.8535,8.8535 L13.0000,3.7071 L13.0000,6.5000 C13.0000,6.7761 13.2239,7.0000 13.5000,7.0000 C13.7761,7.0000 14.0000,6.7761 14.0000,6.5000 L14.0000,2.5003 C14.0000,2.4992 14.0000,2.4981 14.0000,2.4970 C13.9996,2.4329 13.9870,2.3688 13.9621,2.3086 Z M3.0000,4.5000 L3.0000,12.0000 Q3.0000,13.0000 4.0000,13.0000 L11.5000,13.0000 Q12.0000,13.0000 12.0000,13.5000 Q12.0000,14.0000 11.5000,14.0000 L4.0000,14.0000 Q2.0000,14.0000 2.0000,12.0000 L2.0000,4.5000 Q2.0000,4.0000 2.5000,4.0000 Q3.0000,4.0000 3.0000,4.5000 Z" fill="#000000" fill-rule="evenodd"/>
</svg>
